<mxfile host="" modified="2023-12-29T14:25:29.402Z" agent="Mozilla/5.0 (Macintosh; Intel Mac OS X 10.15; rv:109.0) Gecko/20100101 Firefox/115.0" etag="tBWVTVXGgJi5K6f7yhZm" version="21.7.4" type="device">
  <diagram name="Page-1" id="6uxpqX7-4fDLyP2xB7EM">
    <mxGraphModel dx="1354" dy="563" grid="1" gridSize="10" guides="1" tooltips="1" connect="1" arrows="1" fold="1" page="1" pageScale="1" pageWidth="850" pageHeight="1100" math="0" shadow="0">
      <root>
        <mxCell id="0" />
        <mxCell id="1" parent="0" />
        <mxCell id="k-zcl6GTQCLgms_aFeC7-4" style="edgeStyle=orthogonalEdgeStyle;rounded=0;orthogonalLoop=1;jettySize=auto;html=1;entryX=0;entryY=0.5;entryDx=0;entryDy=0;entryPerimeter=0;" edge="1" parent="1" source="k-zcl6GTQCLgms_aFeC7-1" target="k-zcl6GTQCLgms_aFeC7-3">
          <mxGeometry relative="1" as="geometry" />
        </mxCell>
        <mxCell id="k-zcl6GTQCLgms_aFeC7-10" style="edgeStyle=orthogonalEdgeStyle;rounded=0;orthogonalLoop=1;jettySize=auto;html=1;entryX=0.5;entryY=0;entryDx=0;entryDy=0;" edge="1" parent="1" source="k-zcl6GTQCLgms_aFeC7-1" target="k-zcl6GTQCLgms_aFeC7-8">
          <mxGeometry relative="1" as="geometry" />
        </mxCell>
        <mxCell id="k-zcl6GTQCLgms_aFeC7-1" value="&lt;div&gt;Test getting recommendation using REST API&lt;/div&gt;&lt;div&gt;e.g. place to traveI&lt;/div&gt;" style="rounded=0;whiteSpace=wrap;html=1;" vertex="1" parent="1">
          <mxGeometry x="160" y="100" width="120" height="60" as="geometry" />
        </mxCell>
        <mxCell id="k-zcl6GTQCLgms_aFeC7-3" value="" style="sketch=0;points=[[0,0,0],[0.25,0,0],[0.5,0,0],[0.75,0,0],[1,0,0],[0,1,0],[0.25,1,0],[0.5,1,0],[0.75,1,0],[1,1,0],[0,0.25,0],[0,0.5,0],[0,0.75,0],[1,0.25,0],[1,0.5,0],[1,0.75,0]];outlineConnect=0;fontColor=#232F3E;fillColor=#E7157B;strokeColor=#ffffff;dashed=0;verticalLabelPosition=bottom;verticalAlign=top;align=center;html=1;fontSize=12;fontStyle=0;aspect=fixed;shape=mxgraph.aws4.resourceIcon;resIcon=mxgraph.aws4.api_gateway;" vertex="1" parent="1">
          <mxGeometry x="347.54" y="101" width="59" height="59" as="geometry" />
        </mxCell>
        <mxCell id="k-zcl6GTQCLgms_aFeC7-7" style="edgeStyle=orthogonalEdgeStyle;rounded=0;orthogonalLoop=1;jettySize=auto;html=1;" edge="1" parent="1" source="k-zcl6GTQCLgms_aFeC7-5" target="k-zcl6GTQCLgms_aFeC7-1">
          <mxGeometry relative="1" as="geometry" />
        </mxCell>
        <mxCell id="k-zcl6GTQCLgms_aFeC7-15" style="edgeStyle=orthogonalEdgeStyle;rounded=0;orthogonalLoop=1;jettySize=auto;html=1;" edge="1" parent="1" source="k-zcl6GTQCLgms_aFeC7-5" target="k-zcl6GTQCLgms_aFeC7-14">
          <mxGeometry relative="1" as="geometry" />
        </mxCell>
        <mxCell id="k-zcl6GTQCLgms_aFeC7-5" value="&lt;div&gt;Create a dummy input&lt;/div&gt;&lt;div&gt;e.g. a traveler bio&lt;br&gt;&lt;/div&gt;" style="rounded=0;whiteSpace=wrap;html=1;" vertex="1" parent="1">
          <mxGeometry x="160" y="20" width="120" height="60" as="geometry" />
        </mxCell>
        <mxCell id="k-zcl6GTQCLgms_aFeC7-6" value="API Gateway REST API" style="text;html=1;strokeColor=none;fillColor=none;align=center;verticalAlign=middle;whiteSpace=wrap;rounded=0;" vertex="1" parent="1">
          <mxGeometry x="420" y="115.5" width="60" height="30" as="geometry" />
        </mxCell>
        <mxCell id="k-zcl6GTQCLgms_aFeC7-25" style="edgeStyle=orthogonalEdgeStyle;rounded=0;orthogonalLoop=1;jettySize=auto;html=1;" edge="1" parent="1" source="k-zcl6GTQCLgms_aFeC7-8" target="k-zcl6GTQCLgms_aFeC7-37">
          <mxGeometry relative="1" as="geometry">
            <mxPoint x="348.53999999999996" y="221" as="targetPoint" />
          </mxGeometry>
        </mxCell>
        <mxCell id="k-zcl6GTQCLgms_aFeC7-28" style="edgeStyle=orthogonalEdgeStyle;rounded=0;orthogonalLoop=1;jettySize=auto;html=1;" edge="1" parent="1" source="k-zcl6GTQCLgms_aFeC7-8" target="k-zcl6GTQCLgms_aFeC7-27">
          <mxGeometry relative="1" as="geometry" />
        </mxCell>
        <mxCell id="k-zcl6GTQCLgms_aFeC7-8" value="&lt;div&gt;Test getting recommendation using WebSocket&lt;br&gt;&lt;/div&gt;" style="rounded=0;whiteSpace=wrap;html=1;" vertex="1" parent="1">
          <mxGeometry x="160" y="190" width="120" height="60" as="geometry" />
        </mxCell>
        <mxCell id="k-zcl6GTQCLgms_aFeC7-14" value="" style="sketch=0;outlineConnect=0;fontColor=#232F3E;gradientColor=none;fillColor=#232F3D;strokeColor=none;dashed=0;verticalLabelPosition=bottom;verticalAlign=top;align=center;html=1;fontSize=12;fontStyle=0;aspect=fixed;pointerEvents=1;shape=mxgraph.aws4.document;" vertex="1" parent="1">
          <mxGeometry x="306" y="26" width="35.07" height="48" as="geometry" />
        </mxCell>
        <mxCell id="k-zcl6GTQCLgms_aFeC7-17" value="input A" style="text;html=1;strokeColor=none;fillColor=none;align=center;verticalAlign=middle;whiteSpace=wrap;rounded=0;" vertex="1" parent="1">
          <mxGeometry x="293.54" y="70" width="60" height="30" as="geometry" />
        </mxCell>
        <mxCell id="k-zcl6GTQCLgms_aFeC7-18" style="edgeStyle=orthogonalEdgeStyle;rounded=0;orthogonalLoop=1;jettySize=auto;html=1;exitX=0.5;exitY=0;exitDx=0;exitDy=0;entryX=0.75;entryY=0;entryDx=0;entryDy=0;" edge="1" parent="1" source="k-zcl6GTQCLgms_aFeC7-17" target="k-zcl6GTQCLgms_aFeC7-17">
          <mxGeometry relative="1" as="geometry" />
        </mxCell>
        <mxCell id="k-zcl6GTQCLgms_aFeC7-23" style="edgeStyle=orthogonalEdgeStyle;rounded=0;orthogonalLoop=1;jettySize=auto;html=1;" edge="1" parent="1" source="k-zcl6GTQCLgms_aFeC7-19" target="k-zcl6GTQCLgms_aFeC7-1">
          <mxGeometry relative="1" as="geometry" />
        </mxCell>
        <mxCell id="k-zcl6GTQCLgms_aFeC7-19" value="" style="sketch=0;outlineConnect=0;fontColor=#232F3E;gradientColor=none;fillColor=#232F3D;strokeColor=none;dashed=0;verticalLabelPosition=bottom;verticalAlign=top;align=center;html=1;fontSize=12;fontStyle=0;aspect=fixed;pointerEvents=1;shape=mxgraph.aws4.document;" vertex="1" parent="1">
          <mxGeometry x="92.45999999999998" y="106" width="35.07" height="48" as="geometry" />
        </mxCell>
        <mxCell id="k-zcl6GTQCLgms_aFeC7-20" value="input A" style="text;html=1;strokeColor=none;fillColor=none;align=center;verticalAlign=middle;whiteSpace=wrap;rounded=0;" vertex="1" parent="1">
          <mxGeometry x="80" y="150" width="60" height="30" as="geometry" />
        </mxCell>
        <mxCell id="k-zcl6GTQCLgms_aFeC7-24" value="" style="edgeStyle=orthogonalEdgeStyle;rounded=0;orthogonalLoop=1;jettySize=auto;html=1;" edge="1" parent="1" source="k-zcl6GTQCLgms_aFeC7-21" target="k-zcl6GTQCLgms_aFeC7-8">
          <mxGeometry relative="1" as="geometry" />
        </mxCell>
        <mxCell id="k-zcl6GTQCLgms_aFeC7-21" value="" style="sketch=0;outlineConnect=0;fontColor=#232F3E;gradientColor=none;fillColor=#232F3D;strokeColor=none;dashed=0;verticalLabelPosition=bottom;verticalAlign=top;align=center;html=1;fontSize=12;fontStyle=0;aspect=fixed;pointerEvents=1;shape=mxgraph.aws4.document;" vertex="1" parent="1">
          <mxGeometry x="92.46000000000001" y="196" width="35.07" height="48" as="geometry" />
        </mxCell>
        <mxCell id="k-zcl6GTQCLgms_aFeC7-22" value="input A" style="text;html=1;strokeColor=none;fillColor=none;align=center;verticalAlign=middle;whiteSpace=wrap;rounded=0;" vertex="1" parent="1">
          <mxGeometry x="80" y="244" width="60" height="22" as="geometry" />
        </mxCell>
        <mxCell id="k-zcl6GTQCLgms_aFeC7-26" value="&lt;div&gt;API Gateway WebSocket &lt;br&gt;&lt;/div&gt;" style="text;html=1;strokeColor=none;fillColor=none;align=center;verticalAlign=middle;whiteSpace=wrap;rounded=0;" vertex="1" parent="1">
          <mxGeometry x="420" y="204.5" width="60" height="30" as="geometry" />
        </mxCell>
        <mxCell id="k-zcl6GTQCLgms_aFeC7-30" style="edgeStyle=orthogonalEdgeStyle;rounded=0;orthogonalLoop=1;jettySize=auto;html=1;" edge="1" parent="1" source="k-zcl6GTQCLgms_aFeC7-27" target="k-zcl6GTQCLgms_aFeC7-29">
          <mxGeometry relative="1" as="geometry" />
        </mxCell>
        <mxCell id="k-zcl6GTQCLgms_aFeC7-33" style="edgeStyle=orthogonalEdgeStyle;rounded=0;orthogonalLoop=1;jettySize=auto;html=1;entryX=0.5;entryY=0;entryDx=0;entryDy=0;" edge="1" parent="1" source="k-zcl6GTQCLgms_aFeC7-27" target="k-zcl6GTQCLgms_aFeC7-32">
          <mxGeometry relative="1" as="geometry" />
        </mxCell>
        <mxCell id="k-zcl6GTQCLgms_aFeC7-27" value="&lt;div&gt;Create a new item&lt;br&gt;&lt;/div&gt;&lt;div&gt;e.g. place to travel&lt;br&gt;&lt;/div&gt;" style="rounded=0;whiteSpace=wrap;html=1;" vertex="1" parent="1">
          <mxGeometry x="160" y="300" width="120" height="60" as="geometry" />
        </mxCell>
        <mxCell id="k-zcl6GTQCLgms_aFeC7-29" value="" style="sketch=0;outlineConnect=0;fontColor=#232F3E;gradientColor=none;fillColor=#C925D1;strokeColor=none;dashed=0;verticalLabelPosition=bottom;verticalAlign=top;align=center;html=1;fontSize=12;fontStyle=0;aspect=fixed;pointerEvents=1;shape=mxgraph.aws4.item;" vertex="1" parent="1">
          <mxGeometry x="309.54" y="311" width="38" height="38" as="geometry" />
        </mxCell>
        <mxCell id="k-zcl6GTQCLgms_aFeC7-31" value="item B" style="text;html=1;strokeColor=none;fillColor=none;align=center;verticalAlign=middle;whiteSpace=wrap;rounded=0;" vertex="1" parent="1">
          <mxGeometry x="300" y="345" width="60" height="30" as="geometry" />
        </mxCell>
        <mxCell id="k-zcl6GTQCLgms_aFeC7-40" style="edgeStyle=orthogonalEdgeStyle;rounded=0;orthogonalLoop=1;jettySize=auto;html=1;entryX=0;entryY=0.5;entryDx=0;entryDy=0;entryPerimeter=0;" edge="1" parent="1" source="k-zcl6GTQCLgms_aFeC7-32" target="k-zcl6GTQCLgms_aFeC7-38">
          <mxGeometry relative="1" as="geometry" />
        </mxCell>
        <mxCell id="k-zcl6GTQCLgms_aFeC7-43" style="edgeStyle=orthogonalEdgeStyle;rounded=0;orthogonalLoop=1;jettySize=auto;html=1;entryX=0.5;entryY=0;entryDx=0;entryDy=0;" edge="1" parent="1" source="k-zcl6GTQCLgms_aFeC7-32" target="k-zcl6GTQCLgms_aFeC7-41">
          <mxGeometry relative="1" as="geometry" />
        </mxCell>
        <mxCell id="k-zcl6GTQCLgms_aFeC7-32" value="&lt;div&gt;Test inserting new item using REST API&lt;/div&gt;&lt;div&gt;e.g. place to traveI&lt;/div&gt;" style="rounded=0;whiteSpace=wrap;html=1;" vertex="1" parent="1">
          <mxGeometry x="160" y="390" width="120" height="60" as="geometry" />
        </mxCell>
        <mxCell id="k-zcl6GTQCLgms_aFeC7-36" style="edgeStyle=orthogonalEdgeStyle;rounded=0;orthogonalLoop=1;jettySize=auto;html=1;" edge="1" parent="1" source="k-zcl6GTQCLgms_aFeC7-34" target="k-zcl6GTQCLgms_aFeC7-32">
          <mxGeometry relative="1" as="geometry" />
        </mxCell>
        <mxCell id="k-zcl6GTQCLgms_aFeC7-34" value="" style="sketch=0;outlineConnect=0;fontColor=#232F3E;gradientColor=none;fillColor=#C925D1;strokeColor=none;dashed=0;verticalLabelPosition=bottom;verticalAlign=top;align=center;html=1;fontSize=12;fontStyle=0;aspect=fixed;pointerEvents=1;shape=mxgraph.aws4.item;" vertex="1" parent="1">
          <mxGeometry x="89.54000000000002" y="401" width="38" height="38" as="geometry" />
        </mxCell>
        <mxCell id="k-zcl6GTQCLgms_aFeC7-35" value="item B" style="text;html=1;strokeColor=none;fillColor=none;align=center;verticalAlign=middle;whiteSpace=wrap;rounded=0;" vertex="1" parent="1">
          <mxGeometry x="80" y="435" width="60" height="30" as="geometry" />
        </mxCell>
        <mxCell id="k-zcl6GTQCLgms_aFeC7-37" value="" style="sketch=0;points=[[0,0,0],[0.25,0,0],[0.5,0,0],[0.75,0,0],[1,0,0],[0,1,0],[0.25,1,0],[0.5,1,0],[0.75,1,0],[1,1,0],[0,0.25,0],[0,0.5,0],[0,0.75,0],[1,0.25,0],[1,0.5,0],[1,0.75,0]];outlineConnect=0;fontColor=#232F3E;fillColor=#E7157B;strokeColor=#ffffff;dashed=0;verticalLabelPosition=bottom;verticalAlign=top;align=center;html=1;fontSize=12;fontStyle=0;aspect=fixed;shape=mxgraph.aws4.resourceIcon;resIcon=mxgraph.aws4.api_gateway;" vertex="1" parent="1">
          <mxGeometry x="347.54" y="190" width="59" height="59" as="geometry" />
        </mxCell>
        <mxCell id="k-zcl6GTQCLgms_aFeC7-38" value="" style="sketch=0;points=[[0,0,0],[0.25,0,0],[0.5,0,0],[0.75,0,0],[1,0,0],[0,1,0],[0.25,1,0],[0.5,1,0],[0.75,1,0],[1,1,0],[0,0.25,0],[0,0.5,0],[0,0.75,0],[1,0.25,0],[1,0.5,0],[1,0.75,0]];outlineConnect=0;fontColor=#232F3E;fillColor=#E7157B;strokeColor=#ffffff;dashed=0;verticalLabelPosition=bottom;verticalAlign=top;align=center;html=1;fontSize=12;fontStyle=0;aspect=fixed;shape=mxgraph.aws4.resourceIcon;resIcon=mxgraph.aws4.api_gateway;" vertex="1" parent="1">
          <mxGeometry x="341.07000000000005" y="390" width="59" height="59" as="geometry" />
        </mxCell>
        <mxCell id="k-zcl6GTQCLgms_aFeC7-39" value="API Gateway REST API" style="text;html=1;strokeColor=none;fillColor=none;align=center;verticalAlign=middle;whiteSpace=wrap;rounded=0;" vertex="1" parent="1">
          <mxGeometry x="413.53" y="404.5" width="60" height="30" as="geometry" />
        </mxCell>
        <mxCell id="k-zcl6GTQCLgms_aFeC7-45" style="edgeStyle=orthogonalEdgeStyle;rounded=0;orthogonalLoop=1;jettySize=auto;html=1;" edge="1" parent="1" source="k-zcl6GTQCLgms_aFeC7-41" target="k-zcl6GTQCLgms_aFeC7-42">
          <mxGeometry relative="1" as="geometry" />
        </mxCell>
        <mxCell id="k-zcl6GTQCLgms_aFeC7-52" style="edgeStyle=orthogonalEdgeStyle;rounded=0;orthogonalLoop=1;jettySize=auto;html=1;" edge="1" parent="1" source="k-zcl6GTQCLgms_aFeC7-41" target="k-zcl6GTQCLgms_aFeC7-47">
          <mxGeometry relative="1" as="geometry" />
        </mxCell>
        <mxCell id="k-zcl6GTQCLgms_aFeC7-41" value="&lt;div&gt;Create a dummy input&lt;/div&gt;&lt;div&gt;e.g. a traveler bio&lt;br&gt;&lt;/div&gt;" style="rounded=0;whiteSpace=wrap;html=1;" vertex="1" parent="1">
          <mxGeometry x="160" y="480" width="120" height="60" as="geometry" />
        </mxCell>
        <mxCell id="k-zcl6GTQCLgms_aFeC7-42" value="" style="sketch=0;outlineConnect=0;fontColor=#232F3E;gradientColor=none;fillColor=#232F3D;strokeColor=none;dashed=0;verticalLabelPosition=bottom;verticalAlign=top;align=center;html=1;fontSize=12;fontStyle=0;aspect=fixed;pointerEvents=1;shape=mxgraph.aws4.document;" vertex="1" parent="1">
          <mxGeometry x="306" y="486" width="35.07" height="48" as="geometry" />
        </mxCell>
        <mxCell id="k-zcl6GTQCLgms_aFeC7-44" value="input B" style="text;html=1;strokeColor=none;fillColor=none;align=center;verticalAlign=middle;whiteSpace=wrap;rounded=0;" vertex="1" parent="1">
          <mxGeometry x="293.54" y="530" width="60" height="30" as="geometry" />
        </mxCell>
        <mxCell id="k-zcl6GTQCLgms_aFeC7-46" style="edgeStyle=orthogonalEdgeStyle;rounded=0;orthogonalLoop=1;jettySize=auto;html=1;entryX=0;entryY=0.5;entryDx=0;entryDy=0;entryPerimeter=0;" edge="1" parent="1" source="k-zcl6GTQCLgms_aFeC7-47" target="k-zcl6GTQCLgms_aFeC7-48">
          <mxGeometry relative="1" as="geometry" />
        </mxCell>
        <mxCell id="k-zcl6GTQCLgms_aFeC7-89" style="edgeStyle=orthogonalEdgeStyle;rounded=0;orthogonalLoop=1;jettySize=auto;html=1;" edge="1" parent="1" source="k-zcl6GTQCLgms_aFeC7-47" target="k-zcl6GTQCLgms_aFeC7-62">
          <mxGeometry relative="1" as="geometry" />
        </mxCell>
        <mxCell id="k-zcl6GTQCLgms_aFeC7-47" value="&lt;div&gt;Verify new item by getting recommendation using REST API&lt;/div&gt;" style="rounded=0;whiteSpace=wrap;html=1;" vertex="1" parent="1">
          <mxGeometry x="160" y="570" width="120" height="60" as="geometry" />
        </mxCell>
        <mxCell id="k-zcl6GTQCLgms_aFeC7-56" style="edgeStyle=orthogonalEdgeStyle;rounded=0;orthogonalLoop=1;jettySize=auto;html=1;" edge="1" parent="1" source="k-zcl6GTQCLgms_aFeC7-48" target="k-zcl6GTQCLgms_aFeC7-54">
          <mxGeometry relative="1" as="geometry">
            <Array as="points">
              <mxPoint x="370" y="673" />
            </Array>
          </mxGeometry>
        </mxCell>
        <mxCell id="k-zcl6GTQCLgms_aFeC7-48" value="" style="sketch=0;points=[[0,0,0],[0.25,0,0],[0.5,0,0],[0.75,0,0],[1,0,0],[0,1,0],[0.25,1,0],[0.5,1,0],[0.75,1,0],[1,1,0],[0,0.25,0],[0,0.5,0],[0,0.75,0],[1,0.25,0],[1,0.5,0],[1,0.75,0]];outlineConnect=0;fontColor=#232F3E;fillColor=#E7157B;strokeColor=#ffffff;dashed=0;verticalLabelPosition=bottom;verticalAlign=top;align=center;html=1;fontSize=12;fontStyle=0;aspect=fixed;shape=mxgraph.aws4.resourceIcon;resIcon=mxgraph.aws4.api_gateway;" vertex="1" parent="1">
          <mxGeometry x="347.54" y="571" width="59" height="59" as="geometry" />
        </mxCell>
        <mxCell id="k-zcl6GTQCLgms_aFeC7-49" value="API Gateway REST API" style="text;html=1;strokeColor=none;fillColor=none;align=center;verticalAlign=middle;whiteSpace=wrap;rounded=0;" vertex="1" parent="1">
          <mxGeometry x="420" y="585.5" width="60" height="30" as="geometry" />
        </mxCell>
        <mxCell id="k-zcl6GTQCLgms_aFeC7-50" style="edgeStyle=orthogonalEdgeStyle;rounded=0;orthogonalLoop=1;jettySize=auto;html=1;" edge="1" parent="1" source="k-zcl6GTQCLgms_aFeC7-51" target="k-zcl6GTQCLgms_aFeC7-47">
          <mxGeometry relative="1" as="geometry" />
        </mxCell>
        <mxCell id="k-zcl6GTQCLgms_aFeC7-51" value="" style="sketch=0;outlineConnect=0;fontColor=#232F3E;gradientColor=none;fillColor=#232F3D;strokeColor=none;dashed=0;verticalLabelPosition=bottom;verticalAlign=top;align=center;html=1;fontSize=12;fontStyle=0;aspect=fixed;pointerEvents=1;shape=mxgraph.aws4.document;" vertex="1" parent="1">
          <mxGeometry x="92.45999999999998" y="576" width="35.07" height="48" as="geometry" />
        </mxCell>
        <mxCell id="k-zcl6GTQCLgms_aFeC7-53" value="input B" style="text;html=1;strokeColor=none;fillColor=none;align=center;verticalAlign=middle;whiteSpace=wrap;rounded=0;" vertex="1" parent="1">
          <mxGeometry x="80.00000000000003" y="624" width="60" height="30" as="geometry" />
        </mxCell>
        <mxCell id="k-zcl6GTQCLgms_aFeC7-57" style="edgeStyle=orthogonalEdgeStyle;rounded=0;orthogonalLoop=1;jettySize=auto;html=1;entryX=0.883;entryY=1.017;entryDx=0;entryDy=0;entryPerimeter=0;" edge="1" parent="1" source="k-zcl6GTQCLgms_aFeC7-54" target="k-zcl6GTQCLgms_aFeC7-47">
          <mxGeometry relative="1" as="geometry" />
        </mxCell>
        <mxCell id="k-zcl6GTQCLgms_aFeC7-54" value="" style="sketch=0;outlineConnect=0;fontColor=#232F3E;gradientColor=none;fillColor=#C925D1;strokeColor=none;dashed=0;verticalLabelPosition=bottom;verticalAlign=top;align=center;html=1;fontSize=12;fontStyle=0;aspect=fixed;pointerEvents=1;shape=mxgraph.aws4.item;" vertex="1" parent="1">
          <mxGeometry x="309.08000000000004" y="654" width="38" height="38" as="geometry" />
        </mxCell>
        <mxCell id="k-zcl6GTQCLgms_aFeC7-55" value="item B" style="text;html=1;strokeColor=none;fillColor=none;align=center;verticalAlign=middle;whiteSpace=wrap;rounded=0;" vertex="1" parent="1">
          <mxGeometry x="299.53999999999996" y="688" width="60" height="30" as="geometry" />
        </mxCell>
        <mxCell id="k-zcl6GTQCLgms_aFeC7-60" style="edgeStyle=orthogonalEdgeStyle;rounded=0;orthogonalLoop=1;jettySize=auto;html=1;" edge="1" source="k-zcl6GTQCLgms_aFeC7-62" target="k-zcl6GTQCLgms_aFeC7-63" parent="1">
          <mxGeometry relative="1" as="geometry" />
        </mxCell>
        <mxCell id="k-zcl6GTQCLgms_aFeC7-61" style="edgeStyle=orthogonalEdgeStyle;rounded=0;orthogonalLoop=1;jettySize=auto;html=1;entryX=0.5;entryY=0;entryDx=0;entryDy=0;" edge="1" source="k-zcl6GTQCLgms_aFeC7-62" target="k-zcl6GTQCLgms_aFeC7-67" parent="1">
          <mxGeometry relative="1" as="geometry" />
        </mxCell>
        <mxCell id="k-zcl6GTQCLgms_aFeC7-62" value="&lt;div&gt;Create a new item&lt;br&gt;&lt;/div&gt;&lt;div&gt;e.g. place to travel&lt;br&gt;&lt;/div&gt;" style="rounded=0;whiteSpace=wrap;html=1;" vertex="1" parent="1">
          <mxGeometry x="160" y="710" width="120" height="60" as="geometry" />
        </mxCell>
        <mxCell id="k-zcl6GTQCLgms_aFeC7-63" value="" style="sketch=0;outlineConnect=0;fontColor=#232F3E;gradientColor=none;fillColor=#C925D1;strokeColor=none;dashed=0;verticalLabelPosition=bottom;verticalAlign=top;align=center;html=1;fontSize=12;fontStyle=0;aspect=fixed;pointerEvents=1;shape=mxgraph.aws4.item;" vertex="1" parent="1">
          <mxGeometry x="309.54" y="721" width="38" height="38" as="geometry" />
        </mxCell>
        <mxCell id="k-zcl6GTQCLgms_aFeC7-64" value="item C" style="text;html=1;strokeColor=none;fillColor=none;align=center;verticalAlign=middle;whiteSpace=wrap;rounded=0;" vertex="1" parent="1">
          <mxGeometry x="300" y="755" width="60" height="30" as="geometry" />
        </mxCell>
        <mxCell id="k-zcl6GTQCLgms_aFeC7-65" style="edgeStyle=orthogonalEdgeStyle;rounded=0;orthogonalLoop=1;jettySize=auto;html=1;entryX=0;entryY=0.5;entryDx=0;entryDy=0;entryPerimeter=0;" edge="1" source="k-zcl6GTQCLgms_aFeC7-67" target="k-zcl6GTQCLgms_aFeC7-71" parent="1">
          <mxGeometry relative="1" as="geometry" />
        </mxCell>
        <mxCell id="k-zcl6GTQCLgms_aFeC7-66" style="edgeStyle=orthogonalEdgeStyle;rounded=0;orthogonalLoop=1;jettySize=auto;html=1;entryX=0.5;entryY=0;entryDx=0;entryDy=0;" edge="1" source="k-zcl6GTQCLgms_aFeC7-67" target="k-zcl6GTQCLgms_aFeC7-75" parent="1">
          <mxGeometry relative="1" as="geometry" />
        </mxCell>
        <mxCell id="k-zcl6GTQCLgms_aFeC7-67" value="&lt;div&gt;Test inserting new item using WebSocket&lt;/div&gt;&lt;div&gt;e.g. place to traveI&lt;/div&gt;" style="rounded=0;whiteSpace=wrap;html=1;" vertex="1" parent="1">
          <mxGeometry x="160" y="800" width="120" height="60" as="geometry" />
        </mxCell>
        <mxCell id="k-zcl6GTQCLgms_aFeC7-68" style="edgeStyle=orthogonalEdgeStyle;rounded=0;orthogonalLoop=1;jettySize=auto;html=1;" edge="1" source="k-zcl6GTQCLgms_aFeC7-69" target="k-zcl6GTQCLgms_aFeC7-67" parent="1">
          <mxGeometry relative="1" as="geometry" />
        </mxCell>
        <mxCell id="k-zcl6GTQCLgms_aFeC7-69" value="" style="sketch=0;outlineConnect=0;fontColor=#232F3E;gradientColor=none;fillColor=#C925D1;strokeColor=none;dashed=0;verticalLabelPosition=bottom;verticalAlign=top;align=center;html=1;fontSize=12;fontStyle=0;aspect=fixed;pointerEvents=1;shape=mxgraph.aws4.item;" vertex="1" parent="1">
          <mxGeometry x="89.54000000000002" y="811" width="38" height="38" as="geometry" />
        </mxCell>
        <mxCell id="k-zcl6GTQCLgms_aFeC7-70" value="item C" style="text;html=1;strokeColor=none;fillColor=none;align=center;verticalAlign=middle;whiteSpace=wrap;rounded=0;" vertex="1" parent="1">
          <mxGeometry x="80" y="845" width="60" height="30" as="geometry" />
        </mxCell>
        <mxCell id="k-zcl6GTQCLgms_aFeC7-71" value="" style="sketch=0;points=[[0,0,0],[0.25,0,0],[0.5,0,0],[0.75,0,0],[1,0,0],[0,1,0],[0.25,1,0],[0.5,1,0],[0.75,1,0],[1,1,0],[0,0.25,0],[0,0.5,0],[0,0.75,0],[1,0.25,0],[1,0.5,0],[1,0.75,0]];outlineConnect=0;fontColor=#232F3E;fillColor=#E7157B;strokeColor=#ffffff;dashed=0;verticalLabelPosition=bottom;verticalAlign=top;align=center;html=1;fontSize=12;fontStyle=0;aspect=fixed;shape=mxgraph.aws4.resourceIcon;resIcon=mxgraph.aws4.api_gateway;" vertex="1" parent="1">
          <mxGeometry x="341.07000000000005" y="800" width="59" height="59" as="geometry" />
        </mxCell>
        <mxCell id="k-zcl6GTQCLgms_aFeC7-72" value="API Gateway WebSocket" style="text;html=1;strokeColor=none;fillColor=none;align=center;verticalAlign=middle;whiteSpace=wrap;rounded=0;" vertex="1" parent="1">
          <mxGeometry x="413.53" y="814.5" width="60" height="30" as="geometry" />
        </mxCell>
        <mxCell id="k-zcl6GTQCLgms_aFeC7-73" style="edgeStyle=orthogonalEdgeStyle;rounded=0;orthogonalLoop=1;jettySize=auto;html=1;" edge="1" source="k-zcl6GTQCLgms_aFeC7-75" target="k-zcl6GTQCLgms_aFeC7-76" parent="1">
          <mxGeometry relative="1" as="geometry" />
        </mxCell>
        <mxCell id="k-zcl6GTQCLgms_aFeC7-74" style="edgeStyle=orthogonalEdgeStyle;rounded=0;orthogonalLoop=1;jettySize=auto;html=1;" edge="1" source="k-zcl6GTQCLgms_aFeC7-75" target="k-zcl6GTQCLgms_aFeC7-79" parent="1">
          <mxGeometry relative="1" as="geometry" />
        </mxCell>
        <mxCell id="k-zcl6GTQCLgms_aFeC7-75" value="&lt;div&gt;Create a dummy input&lt;/div&gt;&lt;div&gt;e.g. a traveler bio&lt;br&gt;&lt;/div&gt;" style="rounded=0;whiteSpace=wrap;html=1;" vertex="1" parent="1">
          <mxGeometry x="160" y="890" width="120" height="60" as="geometry" />
        </mxCell>
        <mxCell id="k-zcl6GTQCLgms_aFeC7-76" value="" style="sketch=0;outlineConnect=0;fontColor=#232F3E;gradientColor=none;fillColor=#232F3D;strokeColor=none;dashed=0;verticalLabelPosition=bottom;verticalAlign=top;align=center;html=1;fontSize=12;fontStyle=0;aspect=fixed;pointerEvents=1;shape=mxgraph.aws4.document;" vertex="1" parent="1">
          <mxGeometry x="306" y="896" width="35.07" height="48" as="geometry" />
        </mxCell>
        <mxCell id="k-zcl6GTQCLgms_aFeC7-77" value="input C" style="text;html=1;strokeColor=none;fillColor=none;align=center;verticalAlign=middle;whiteSpace=wrap;rounded=0;" vertex="1" parent="1">
          <mxGeometry x="293.54" y="940" width="60" height="30" as="geometry" />
        </mxCell>
        <mxCell id="k-zcl6GTQCLgms_aFeC7-78" style="edgeStyle=orthogonalEdgeStyle;rounded=0;orthogonalLoop=1;jettySize=auto;html=1;entryX=0;entryY=0.5;entryDx=0;entryDy=0;entryPerimeter=0;" edge="1" source="k-zcl6GTQCLgms_aFeC7-79" target="k-zcl6GTQCLgms_aFeC7-81" parent="1">
          <mxGeometry relative="1" as="geometry" />
        </mxCell>
        <mxCell id="k-zcl6GTQCLgms_aFeC7-79" value="&lt;div&gt;Verify new item by getting recommendation using WebSocket&lt;/div&gt;" style="rounded=0;whiteSpace=wrap;html=1;" vertex="1" parent="1">
          <mxGeometry x="160" y="980" width="120" height="60" as="geometry" />
        </mxCell>
        <mxCell id="k-zcl6GTQCLgms_aFeC7-80" style="edgeStyle=orthogonalEdgeStyle;rounded=0;orthogonalLoop=1;jettySize=auto;html=1;" edge="1" source="k-zcl6GTQCLgms_aFeC7-81" target="k-zcl6GTQCLgms_aFeC7-87" parent="1">
          <mxGeometry relative="1" as="geometry">
            <Array as="points">
              <mxPoint x="370" y="1083" />
            </Array>
          </mxGeometry>
        </mxCell>
        <mxCell id="k-zcl6GTQCLgms_aFeC7-81" value="" style="sketch=0;points=[[0,0,0],[0.25,0,0],[0.5,0,0],[0.75,0,0],[1,0,0],[0,1,0],[0.25,1,0],[0.5,1,0],[0.75,1,0],[1,1,0],[0,0.25,0],[0,0.5,0],[0,0.75,0],[1,0.25,0],[1,0.5,0],[1,0.75,0]];outlineConnect=0;fontColor=#232F3E;fillColor=#E7157B;strokeColor=#ffffff;dashed=0;verticalLabelPosition=bottom;verticalAlign=top;align=center;html=1;fontSize=12;fontStyle=0;aspect=fixed;shape=mxgraph.aws4.resourceIcon;resIcon=mxgraph.aws4.api_gateway;" vertex="1" parent="1">
          <mxGeometry x="347.54" y="981" width="59" height="59" as="geometry" />
        </mxCell>
        <mxCell id="k-zcl6GTQCLgms_aFeC7-82" value="API Gateway WebSocket" style="text;html=1;strokeColor=none;fillColor=none;align=center;verticalAlign=middle;whiteSpace=wrap;rounded=0;" vertex="1" parent="1">
          <mxGeometry x="420" y="995.5" width="60" height="30" as="geometry" />
        </mxCell>
        <mxCell id="k-zcl6GTQCLgms_aFeC7-83" style="edgeStyle=orthogonalEdgeStyle;rounded=0;orthogonalLoop=1;jettySize=auto;html=1;" edge="1" source="k-zcl6GTQCLgms_aFeC7-84" target="k-zcl6GTQCLgms_aFeC7-79" parent="1">
          <mxGeometry relative="1" as="geometry" />
        </mxCell>
        <mxCell id="k-zcl6GTQCLgms_aFeC7-84" value="" style="sketch=0;outlineConnect=0;fontColor=#232F3E;gradientColor=none;fillColor=#232F3D;strokeColor=none;dashed=0;verticalLabelPosition=bottom;verticalAlign=top;align=center;html=1;fontSize=12;fontStyle=0;aspect=fixed;pointerEvents=1;shape=mxgraph.aws4.document;" vertex="1" parent="1">
          <mxGeometry x="92.45999999999998" y="986" width="35.07" height="48" as="geometry" />
        </mxCell>
        <mxCell id="k-zcl6GTQCLgms_aFeC7-85" value="input C" style="text;html=1;strokeColor=none;fillColor=none;align=center;verticalAlign=middle;whiteSpace=wrap;rounded=0;" vertex="1" parent="1">
          <mxGeometry x="80.00000000000003" y="1034" width="60" height="30" as="geometry" />
        </mxCell>
        <mxCell id="k-zcl6GTQCLgms_aFeC7-86" style="edgeStyle=orthogonalEdgeStyle;rounded=0;orthogonalLoop=1;jettySize=auto;html=1;entryX=0.883;entryY=1.017;entryDx=0;entryDy=0;entryPerimeter=0;" edge="1" source="k-zcl6GTQCLgms_aFeC7-87" target="k-zcl6GTQCLgms_aFeC7-79" parent="1">
          <mxGeometry relative="1" as="geometry" />
        </mxCell>
        <mxCell id="k-zcl6GTQCLgms_aFeC7-87" value="" style="sketch=0;outlineConnect=0;fontColor=#232F3E;gradientColor=none;fillColor=#C925D1;strokeColor=none;dashed=0;verticalLabelPosition=bottom;verticalAlign=top;align=center;html=1;fontSize=12;fontStyle=0;aspect=fixed;pointerEvents=1;shape=mxgraph.aws4.item;" vertex="1" parent="1">
          <mxGeometry x="308.08000000000004" y="1064" width="38" height="38" as="geometry" />
        </mxCell>
        <mxCell id="k-zcl6GTQCLgms_aFeC7-88" value="item C" style="text;html=1;strokeColor=none;fillColor=none;align=center;verticalAlign=middle;whiteSpace=wrap;rounded=0;" vertex="1" parent="1">
          <mxGeometry x="298.53999999999996" y="1098" width="60" height="30" as="geometry" />
        </mxCell>
      </root>
    </mxGraphModel>
  </diagram>
</mxfile>
